<svg width="598" height="67" viewBox="0 0 598 67" fill="none" xmlns="http://www.w3.org/2000/svg">
<rect x="83.2012" y="13.9729" width="98.0907" height="6" rx="3" fill="#EFF0F7"/>
<rect x="83.2012" y="13.9729" width="49.045" height="6" rx="3" fill="#4A3AFF"/>
<rect x="251.291" y="13.9729" width="98.0907" height="6" rx="3" fill="#EFF0F7"/>
<rect x="419.381" y="13.9729" width="98.0907" height="6" rx="3" fill="#EFF0F7"/>
<circle cx="48.2012" cy="17.4729" r="17" fill="#4A3AFF"/>
<path d="M47.4892 22V12.72L45.6812 13.136V11.888L48.1612 10.8H49.2492V22H47.4892Z" fill="white"/>
<circle cx="216.291" cy="17.4729" r="17" fill="#EFF0F7"/>
<path d="M213.299 22V21.056C214.056 20.4587 214.771 19.856 215.443 19.248C216.126 18.6293 216.728 18.0213 217.251 17.424C217.784 16.8267 218.2 16.24 218.499 15.664C218.808 15.088 218.963 14.5333 218.963 14C218.963 13.6053 218.894 13.2373 218.755 12.896C218.627 12.5547 218.414 12.2827 218.115 12.08C217.816 11.8667 217.411 11.76 216.899 11.76C216.408 11.76 215.998 11.872 215.667 12.096C215.336 12.3093 215.086 12.5973 214.915 12.96C214.755 13.3227 214.675 13.712 214.675 14.128H213.379C213.379 13.392 213.534 12.7627 213.843 12.24C214.152 11.7067 214.574 11.3013 215.107 11.024C215.64 10.7467 216.243 10.608 216.915 10.608C217.907 10.608 218.718 10.8907 219.347 11.456C219.987 12.0107 220.307 12.8427 220.307 13.952C220.307 14.6133 220.142 15.2693 219.811 15.92C219.48 16.56 219.059 17.184 218.547 17.792C218.035 18.3893 217.486 18.9493 216.899 19.472C216.323 19.9947 215.784 20.464 215.283 20.88H220.691V22H213.299Z" fill="#6F6C90"/>
<circle cx="384.381" cy="17.4729" r="17" fill="#EFF0F7"/>
<path d="M384.053 22.192C383.338 22.192 382.693 22.064 382.117 21.808C381.541 21.5413 381.077 21.1467 380.725 20.624C380.384 20.1013 380.202 19.4507 380.181 18.672H381.541C381.552 19.312 381.776 19.8667 382.213 20.336C382.65 20.7947 383.264 21.024 384.053 21.024C384.842 21.024 385.434 20.8053 385.829 20.368C386.234 19.9307 386.437 19.4027 386.437 18.784C386.437 18.2613 386.309 17.8347 386.053 17.504C385.808 17.1733 385.472 16.928 385.045 16.768C384.629 16.608 384.17 16.528 383.669 16.528H382.837V15.392H383.669C384.394 15.392 384.96 15.2267 385.365 14.896C385.781 14.5653 385.989 14.1013 385.989 13.504C385.989 13.0027 385.824 12.592 385.493 12.272C385.173 11.9413 384.693 11.776 384.053 11.776C383.434 11.776 382.938 11.9627 382.565 12.336C382.192 12.6987 381.984 13.1573 381.941 13.712H380.581C380.613 13.104 380.773 12.5653 381.061 12.096C381.36 11.6267 381.765 11.264 382.277 11.008C382.789 10.7413 383.381 10.608 384.053 10.608C384.778 10.608 385.381 10.736 385.861 10.992C386.352 11.248 386.72 11.5893 386.965 12.016C387.221 12.4427 387.349 12.912 387.349 13.424C387.349 13.9893 387.194 14.5067 386.885 14.976C386.576 15.4347 386.112 15.744 385.493 15.904C386.154 16.0427 386.704 16.3573 387.141 16.848C387.578 17.3387 387.797 17.984 387.797 18.784C387.797 19.4027 387.653 19.9733 387.365 20.496C387.088 21.008 386.672 21.4187 386.117 21.728C385.562 22.0373 384.874 22.192 384.053 22.192Z" fill="#6F6C90"/>
<circle cx="552.471" cy="17.4729" r="17" fill="#EFF0F7"/>
<path d="M553.727 22V19.6H548.047V18.56L553.487 10.8H555.055V18.416H556.719V19.6H555.055V22H553.727ZM549.535 18.416H553.791V12.288L549.535 18.416Z" fill="#6F6C90"/>
<line x1="0.960938" y1="66.3984" x2="597.22" y2="66.3985" stroke="#D9DBE9"/>
</svg>
