<svg width="598" height="67" viewBox="0 0 598 67" fill="none" xmlns="http://www.w3.org/2000/svg">
<rect x="74.2012" y="13.9727" width="98.0907" height="6" rx="3" fill="#4A3AFF"/>
<rect x="242.291" y="13.9727" width="98.0907" height="6" rx="3" fill="#4A3AFF"/>
<rect x="410.381" y="13.9727" width="98.0907" height="6" rx="3" fill="#EFF0F7"/>
<circle cx="39.2012" cy="17.4727" r="17" fill="#4A3AFF"/>
<path d="M38.4892 23V13.72L36.6812 14.136V12.888L39.1612 11.8H40.2492V23H38.4892Z" fill="white"/>
<circle cx="207.291" cy="17.4727" r="17" fill="#4A3AFF"/>
<path d="M204.203 23V21.784C204.928 21.208 205.622 20.6267 206.283 20.04C206.944 19.4533 207.531 18.8773 208.043 18.312C208.566 17.736 208.976 17.176 209.275 16.632C209.574 16.0773 209.723 15.544 209.723 15.032C209.723 14.6907 209.664 14.3707 209.547 14.072C209.43 13.7627 209.238 13.5173 208.971 13.336C208.704 13.144 208.347 13.048 207.899 13.048C207.227 13.048 206.72 13.2613 206.379 13.688C206.048 14.1147 205.888 14.6267 205.899 15.224H204.251C204.262 14.4347 204.427 13.7733 204.747 13.24C205.078 12.7067 205.515 12.3013 206.059 12.024C206.614 11.7467 207.238 11.608 207.931 11.608C208.987 11.608 209.83 11.9067 210.459 12.504C211.099 13.0907 211.419 13.912 211.419 14.968C211.419 15.5973 211.264 16.2213 210.955 16.84C210.656 17.4587 210.262 18.056 209.771 18.632C209.291 19.1973 208.774 19.7307 208.219 20.232C207.664 20.7333 207.136 21.1867 206.635 21.592H211.755V23H204.203Z" fill="white"/>
<circle cx="375.381" cy="17.4727" r="17" fill="#4A3AFF"/>
<path d="M375.101 23.192C374.376 23.192 373.714 23.064 373.117 22.808C372.53 22.5413 372.061 22.1413 371.709 21.608C371.357 21.0747 371.17 20.408 371.149 19.608H372.829C372.85 20.2053 373.053 20.712 373.437 21.128C373.832 21.5333 374.386 21.736 375.101 21.736C375.784 21.736 376.306 21.5493 376.669 21.176C377.032 20.792 377.213 20.3173 377.213 19.752C377.213 19.0693 376.968 18.5627 376.477 18.232C375.997 17.9013 375.405 17.736 374.701 17.736H373.869V16.328H374.717C375.346 16.328 375.853 16.1787 376.237 15.88C376.632 15.5813 376.829 15.16 376.829 14.616C376.829 14.1573 376.674 13.784 376.365 13.496C376.066 13.208 375.64 13.064 375.085 13.064C374.509 13.064 374.056 13.2347 373.725 13.576C373.394 13.9067 373.213 14.3227 373.181 14.824H371.501C371.522 14.1733 371.682 13.608 371.981 13.128C372.29 12.648 372.712 12.2747 373.245 12.008C373.778 11.7413 374.392 11.608 375.085 11.608C375.832 11.608 376.456 11.7413 376.957 12.008C377.469 12.264 377.853 12.616 378.109 13.064C378.376 13.5013 378.509 13.9813 378.509 14.504C378.509 15.1013 378.344 15.624 378.013 16.072C377.682 16.52 377.24 16.8187 376.685 16.968C377.325 17.1067 377.853 17.4213 378.269 17.912C378.685 18.392 378.893 19.016 378.893 19.784C378.893 20.4027 378.749 20.9733 378.461 21.496C378.173 22.008 377.746 22.4187 377.181 22.728C376.616 23.0373 375.922 23.192 375.101 23.192Z" fill="white"/>
<circle cx="543.471" cy="17.4727" r="17" fill="#EFF0F7"/>
<path d="M544.727 23V20.6H539.047V19.56L544.487 11.8H546.055V19.416H547.719V20.6H546.055V23H544.727ZM540.535 19.416H544.791V13.288L540.535 19.416Z" fill="#6F6C90"/>
<rect x="410.381" y="13.9727" width="49.045" height="6" rx="3" fill="#4A3AFF"/>
<line x1="0.960938" y1="66.3984" x2="597.22" y2="66.3985" stroke="#D9DBE9"/>
</svg>
