<svg width="598" height="66" viewBox="0 0 598 66" fill="none" xmlns="http://www.w3.org/2000/svg">
<rect x="76.2012" y="13.8232" width="98.0907" height="6" rx="3" fill="#4A3AFF"/>
<rect x="244.291" y="13.8232" width="98.0907" height="6" rx="3" fill="#4A3AFF"/>
<rect x="412.381" y="13.8232" width="98.0907" height="6" rx="3" fill="#4A3AFF"/>
<circle cx="41.2012" cy="17.3232" r="17" fill="#4A3AFF"/>
<path d="M40.4892 22.3232V13.0432L38.6812 13.4592V12.2112L41.1612 11.1232H42.2492V22.3232H40.4892Z" fill="white"/>
<circle cx="209.291" cy="17.3232" r="17" fill="#4A3AFF"/>
<path d="M206.203 22.3232V21.1072C206.928 20.5312 207.622 19.9499 208.283 19.3632C208.944 18.7766 209.531 18.2006 210.043 17.6352C210.566 17.0592 210.976 16.4992 211.275 15.9552C211.574 15.4006 211.723 14.8672 211.723 14.3552C211.723 14.0139 211.664 13.6939 211.547 13.3952C211.43 13.0859 211.238 12.8406 210.971 12.6592C210.704 12.4672 210.347 12.3712 209.899 12.3712C209.227 12.3712 208.72 12.5846 208.379 13.0112C208.048 13.4379 207.888 13.9499 207.899 14.5472H206.251C206.262 13.7579 206.427 13.0966 206.747 12.5632C207.078 12.0299 207.515 11.6246 208.059 11.3472C208.614 11.0699 209.238 10.9312 209.931 10.9312C210.987 10.9312 211.83 11.2299 212.459 11.8272C213.099 12.4139 213.419 13.2352 213.419 14.2912C213.419 14.9206 213.264 15.5446 212.955 16.1632C212.656 16.7819 212.262 17.3792 211.771 17.9552C211.291 18.5206 210.774 19.0539 210.219 19.5552C209.664 20.0566 209.136 20.5099 208.635 20.9152H213.755V22.3232H206.203Z" fill="white"/>
<circle cx="377.381" cy="17.3232" r="17" fill="#4A3AFF"/>
<path d="M377.101 22.5152C376.376 22.5152 375.714 22.3872 375.117 22.1312C374.53 21.8646 374.061 21.4646 373.709 20.9312C373.357 20.3979 373.17 19.7312 373.149 18.9312H374.829C374.85 19.5286 375.053 20.0352 375.437 20.4512C375.832 20.8566 376.386 21.0592 377.101 21.0592C377.784 21.0592 378.306 20.8726 378.669 20.4992C379.032 20.1152 379.213 19.6406 379.213 19.0752C379.213 18.3926 378.968 17.8859 378.477 17.5552C377.997 17.2246 377.405 17.0592 376.701 17.0592H375.869V15.6512H376.717C377.346 15.6512 377.853 15.5019 378.237 15.2032C378.632 14.9046 378.829 14.4832 378.829 13.9392C378.829 13.4806 378.674 13.1072 378.365 12.8192C378.066 12.5312 377.64 12.3872 377.085 12.3872C376.509 12.3872 376.056 12.5579 375.725 12.8992C375.394 13.2299 375.213 13.6459 375.181 14.1472H373.501C373.522 13.4966 373.682 12.9312 373.981 12.4512C374.29 11.9712 374.712 11.5979 375.245 11.3312C375.778 11.0646 376.392 10.9312 377.085 10.9312C377.832 10.9312 378.456 11.0646 378.957 11.3312C379.469 11.5872 379.853 11.9392 380.109 12.3872C380.376 12.8246 380.509 13.3046 380.509 13.8272C380.509 14.4246 380.344 14.9472 380.013 15.3952C379.682 15.8432 379.24 16.1419 378.685 16.2912C379.325 16.4299 379.853 16.7446 380.269 17.2352C380.685 17.7152 380.893 18.3392 380.893 19.1072C380.893 19.7259 380.749 20.2966 380.461 20.8192C380.173 21.3312 379.746 21.7419 379.181 22.0512C378.616 22.3606 377.922 22.5152 377.101 22.5152Z" fill="white"/>
<circle cx="545.471" cy="17.3232" r="17" fill="#4A3AFF"/>
<path d="M546.711 22.3232V20.0832H541.095V18.7392L546.439 11.1232H548.391V18.6112H549.959V20.0832H548.391V22.3232H546.711ZM542.935 18.6112H546.807V12.9952L542.935 18.6112Z" fill="white"/>
<line x1="0.960938" y1="65.3984" x2="597.22" y2="65.3985" stroke="#D9DBE9"/>
</svg>
